<svg version="1.1" id="Layer_1" xmlns="http://www.w3.org/2000/svg" xmlns:xlink="http://www.w3.org/1999/xlink" x="0px" y="0px"
	 width="100%" viewBox="0 0 1024 1024" enable-background="new 0 0 1024 1024" xml:space="preserve">
<path fill="#000000" opacity="1.000000" stroke="none" 
	d="
M236.726166,859.181885 
	C222.718384,855.807434 209.388596,851.635498 196.144760,847.060669 
	C188.151550,844.299561 179.712479,842.820618 171.461411,840.816345 
	C157.197891,837.351501 149.376465,827.223022 144.465103,814.346313 
	C140.295212,803.413635 135.210663,793.021912 129.122574,783.003479 
	C114.308128,758.625305 104.746933,732.421021 102.919502,703.689880 
	C101.811432,686.268616 101.624870,668.779907 98.383636,651.517761 
	C97.298378,645.737854 99.434715,639.948303 100.508797,634.250977 
	C101.662682,628.130371 101.824661,622.156555 101.333809,615.918030 
	C100.537041,605.791138 101.365005,595.577820 103.767807,585.681030 
	C105.142128,580.020386 105.201607,574.492798 104.626282,568.841858 
	C103.901962,561.727478 103.366302,554.599365 103.567596,547.448059 
	C103.720383,542.019653 100.894173,537.655701 97.832222,533.921326 
	C90.776863,525.316406 91.196793,516.299377 94.763039,506.737579 
	C97.617149,499.085175 97.551025,491.202942 97.265938,483.170135 
	C96.781853,469.529541 96.303398,455.857269 97.687874,442.231293 
	C98.605324,433.201904 97.936707,424.265076 96.566338,415.347534 
	C95.929169,411.201233 95.421921,406.925171 96.446960,402.919189 
	C98.327255,395.570862 97.564636,388.395172 96.333984,381.140686 
	C95.677147,377.268768 95.837494,373.408508 97.856567,369.960876 
	C105.030701,357.710846 105.823143,344.029297 106.953537,330.408783 
	C107.215210,327.255768 107.593384,324.110748 107.785591,320.954010 
	C108.424072,310.467682 105.891518,300.846344 100.017113,292.071991 
	C95.117432,284.753510 94.877502,276.792786 95.674812,268.139679 
	C96.723495,256.758545 103.643806,247.324310 104.832428,236.142288 
	C105.112259,233.509720 105.759148,230.897217 106.440826,228.329544 
	C109.754456,215.847931 116.096207,204.512939 125.344009,196.150085 
	C131.882004,190.237778 136.252197,183.313416 141.486374,176.715729 
	C144.504410,172.911499 148.195496,169.713608 153.524399,168.463577 
	C171.567169,164.231216 188.561661,157.012390 205.532715,149.671478 
	C213.458969,146.242920 220.993210,142.136581 228.639786,138.227585 
	C234.000595,135.487091 239.783112,134.989853 245.462677,134.143677 
	C252.309036,133.123688 258.276642,132.409561 262.234131,124.931664 
	C265.715210,118.354034 273.701538,118.254570 280.556091,118.445915 
	C284.421997,118.553833 288.333771,118.507591 291.957642,117.732346 
	C305.043030,114.933022 318.453125,114.957153 331.565063,112.660973 
	C336.507202,111.795509 341.139313,112.347488 345.840118,113.740860 
	C351.952484,115.552620 358.121948,116.676605 364.551178,115.279579 
	C367.483337,114.642441 370.755707,114.264137 373.451538,115.507133 
	C383.446198,120.115486 392.733521,116.447441 401.992218,113.368935 
	C414.449829,109.226791 426.845459,107.099663 439.587036,112.024147 
	C443.915100,113.696915 448.504578,112.729698 452.938110,112.790642 
	C459.992798,112.887619 466.871582,113.474365 473.639404,115.573967 
	C481.006805,117.859558 488.701477,118.170433 496.317871,118.894943 
	C497.146454,118.973763 498.065216,118.766090 498.801788,119.052399 
	C513.865601,124.907730 527.916870,117.436737 542.279114,115.336464 
	C548.066040,114.490219 553.725830,111.176018 559.494690,109.099541 
	C565.713684,106.861069 572.037354,105.836617 578.589355,105.908493 
	C587.772034,106.009224 596.731384,104.951309 605.753662,102.861038 
	C612.953491,101.192978 620.711609,102.101532 628.073364,100.931427 
	C644.133850,98.378723 658.628479,103.871758 673.335327,108.685707 
	C680.767822,111.118561 688.561829,112.680183 695.672913,115.814262 
	C711.444763,122.765457 728.565552,121.549385 744.915833,124.870132 
	C758.704590,127.670654 772.917786,125.776886 786.715088,127.407417 
	C799.448730,128.912231 812.455566,130.991852 824.344666,136.706558 
	C827.194702,138.076492 829.974548,139.636429 833.125610,140.256744 
	C842.174377,142.038025 849.911255,146.424545 857.120728,152.015076 
	C865.008423,158.131485 873.043396,164.058548 881.035522,170.039520 
	C884.823547,172.874252 887.905884,176.373856 890.451050,180.302399 
	C894.242859,186.155258 899.065674,191.199142 905.011780,194.475677 
	C919.583435,202.505264 922.856323,216.202271 925.153198,230.900452 
	C926.776184,241.286392 923.346375,250.636780 920.591248,260.195374 
	C920.191101,261.583557 919.433105,263.123535 918.361633,264.022125 
	C911.176453,270.048309 906.296875,277.612823 902.956360,286.273865 
	C900.194031,293.435852 894.750488,298.570984 889.159729,304.479980 
	C886.188660,300.313934 883.923340,296.040314 881.856812,291.580231 
	C876.961670,281.015350 872.334717,270.269867 862.986023,262.549286 
	C858.614319,258.938934 856.218872,258.998169 852.633240,263.505951 
	C850.329895,266.401611 847.523865,268.729034 844.688416,271.065796 
	C839.317993,275.491699 838.547546,280.448120 842.753357,285.907745 
	C847.515015,292.088989 854.175659,296.583344 858.328735,303.401428 
	C859.754211,305.741669 862.247070,304.457031 864.165100,303.362061 
	C867.921875,301.217438 871.879700,298.006348 876.085144,301.170227 
	C880.166016,304.240295 879.761475,309.493134 879.836914,314.115906 
	C879.888123,317.255280 879.249146,320.400299 879.076111,323.551422 
	C878.994141,325.045349 879.170105,326.723267 880.879822,327.326080 
	C882.835571,328.015717 884.135925,326.630798 884.993286,325.241577 
	C886.639587,322.573822 888.006104,319.733307 889.522461,316.901276 
	C894.567566,317.423950 898.081299,319.582733 901.486572,323.289581 
	C905.774414,327.957245 911.641418,330.888245 915.072083,336.797729 
	C921.431580,347.752350 925.512939,359.540314 928.362183,371.675293 
	C929.653748,377.176147 928.257690,383.218750 927.214111,388.972839 
	C922.529724,414.802734 913.058777,439.240692 905.273804,464.155457 
	C899.002441,484.226166 896.296997,504.613800 895.912476,525.603333 
	C895.473694,549.553894 892.231384,573.422424 891.613281,597.337463 
	C891.133179,615.912476 886.148193,633.488098 883.559570,651.563721 
	C882.065857,661.993103 883.899048,672.570190 882.046509,682.974976 
	C880.997253,688.867798 880.603455,694.833008 879.348328,700.731384 
	C876.035706,716.298706 864.683228,725.826721 853.624084,735.336548 
	C844.124939,743.504883 832.537292,748.655640 821.326843,754.079407 
	C813.284973,757.970215 801.566284,753.021729 797.242004,745.086914 
	C794.072815,739.271606 792.254272,732.698730 787.307983,727.864441 
	C781.963196,722.640686 779.895752,722.345093 773.668213,726.505859 
	C769.044861,729.594788 766.104675,729.346741 762.080566,725.519531 
	C761.718750,725.175354 761.349915,724.827271 761.049377,724.431641 
	C754.073547,715.248108 751.288330,716.523010 743.578064,725.097839 
	C739.698059,729.412842 736.508789,734.354126 733.071716,739.059509 
	C731.644226,741.013733 730.874390,743.232483 731.686401,745.656860 
	C733.512146,751.107849 731.785400,755.866943 728.731384,760.249146 
	C725.929016,764.270325 725.637573,768.439514 726.720337,773.091492 
	C729.800659,786.325317 725.287598,795.202087 713.593933,802.384949 
	C702.324707,809.307068 690.663757,814.467407 677.349548,815.571777 
	C675.106934,815.757874 672.297607,816.426697 670.875061,817.934082 
	C664.290283,824.912109 655.099365,825.237427 646.881042,828.043335 
	C637.629822,831.201904 628.300903,833.141235 618.433838,831.173828 
	C614.308167,830.351196 610.109619,831.158020 606.130371,832.571289 
	C587.060791,839.343811 567.588745,841.069946 547.613098,837.650452 
	C537.190857,835.866333 527.106140,836.785706 517.588867,842.037476 
	C514.569824,843.703613 511.080017,844.562622 507.747894,845.606812 
	C497.795013,848.725769 489.620941,855.355774 480.175476,859.475708 
	C477.518951,860.634338 475.652924,862.824524 473.923920,865.106750 
	C467.676544,873.353394 459.668030,878.955750 449.589020,881.627991 
	C444.276581,883.036438 439.185516,885.044922 434.374878,887.832397 
	C429.282990,890.782837 417.226135,888.301331 413.713684,883.500000 
	C405.860229,872.764832 396.224457,865.863403 382.179626,868.346863 
	C375.300751,869.563110 368.578033,871.746338 361.675995,872.727966 
	C351.795807,874.133179 342.354218,877.547485 332.335693,878.350098 
	C315.424377,879.704895 298.750885,878.594849 282.348053,874.378235 
	C276.071960,872.764893 269.645935,872.065430 263.389557,870.144958 
	C254.241974,867.336975 246.467041,861.430847 236.726166,859.181885 
M492.653748,317.800354 
	C483.229462,300.635803 470.106384,286.909729 453.670685,276.388458 
	C429.902466,261.173309 403.461334,254.805801 375.613007,253.341766 
	C347.570251,251.867508 320.068420,254.433121 293.707245,264.852295 
	C255.631149,279.901703 228.651566,305.733246 216.115173,345.380829 
	C209.762939,365.470337 208.400467,386.000183 210.174286,406.980591 
	C212.383972,433.116425 220.703552,456.622711 237.643341,476.835205 
	C251.705750,493.614349 269.566162,505.443817 288.672577,515.578369 
	C310.770355,527.299561 334.167542,536.211731 356.742981,546.895142 
	C373.437592,554.795654 390.677643,561.844788 405.581360,572.989014 
	C424.269043,586.962646 432.600311,605.765259 428.149017,628.942017 
	C423.663757,652.295898 409.647583,667.704407 386.385620,673.727051 
	C369.096832,678.203186 351.723694,677.505676 334.702271,672.087097 
	C315.834106,666.080566 303.804443,653.112244 297.746643,634.437927 
	C295.099915,626.278809 294.418854,617.869446 294.587494,609.320007 
	C294.689301,604.160095 292.820282,602.285461 287.743042,602.267334 
	C261.410645,602.173523 235.077667,602.233826 208.745544,602.104004 
	C205.383591,602.087463 204.218628,603.414978 204.500473,606.517212 
	C205.599747,618.616516 204.684616,630.845886 206.536331,642.880920 
	C212.706818,682.984802 233.663010,713.073242 268.511536,733.617737 
	C298.536438,751.318542 331.374847,757.246643 365.752869,757.064087 
	C396.613586,756.900330 425.779877,750.123779 452.973846,735.429504 
	C483.101685,719.149963 504.650208,695.447815 515.285400,662.489807 
	C521.456116,643.366760 522.232544,623.647278 521.696716,603.774048 
	C521.312927,589.543823 519.052979,575.663879 514.196228,562.273560 
	C502.984894,531.363403 481.106476,509.641510 453.848572,492.619476 
	C430.020416,477.739227 404.247345,466.789459 378.665710,455.443939 
	C361.617767,447.883118 344.413116,440.613190 328.801422,430.199158 
	C314.356598,420.563416 304.583405,407.977509 303.351044,390.002899 
	C302.010864,370.455444 308.021423,353.876740 324.939362,343.131500 
	C343.408447,331.401031 363.704590,331.176788 384.127655,337.187134 
	C400.381195,341.970398 411.196472,352.976532 417.317871,368.684998 
	C420.494324,376.836273 421.711761,385.397919 422.074799,394.038086 
	C422.257843,398.393921 423.888763,399.779175 428.130646,399.754944 
	C452.796082,399.613922 477.462677,399.689850 502.128845,399.658630 
	C507.898041,399.651337 508.725586,398.884338 508.599335,392.882080 
	C508.487427,387.563873 507.903351,382.257446 507.672638,376.939514 
	C506.782959,356.434418 502.866394,336.701385 492.653748,317.800354 
M728.655457,547.190613 
	C729.350464,543.100098 728.670410,538.625366 731.932190,534.785400 
	C736.267151,538.333252 736.164673,543.220581 737.058838,547.656006 
	C738.447632,554.543762 740.298828,555.812134 746.551086,553.770569 
	C749.220764,555.545654 748.309937,560.288452 752.198181,561.247070 
	C754.318115,559.179565 754.476868,556.556946 754.805969,554.166077 
	C757.226257,536.578979 756.856018,518.987000 754.304077,501.450348 
	C753.596924,496.591125 751.898254,492.087708 747.256531,489.333771 
	C746.333191,488.785980 745.702698,487.623474 745.128662,486.633362 
	C743.942749,484.588013 742.918579,482.349518 739.998779,482.673920 
	C736.711609,483.039185 735.976440,485.646210 735.136414,488.271545 
	C733.821350,492.381653 733.369202,496.811951 730.546875,501.854279 
	C729.621826,491.606201 728.297485,482.724426 728.105469,473.818268 
	C727.211670,432.338165 726.734314,390.850555 727.051453,349.358276 
	C727.101013,342.875275 727.089661,342.872437 733.841553,342.873474 
	C764.837402,342.878174 795.833557,342.824890 826.828857,342.958679 
	C831.160889,342.977417 833.168884,341.954346 833.031982,337.128845 
	C832.328613,312.323029 833.905273,287.514038 833.082458,262.697235 
	C832.945740,258.573944 831.659241,257.285370 827.547241,257.289612 
	C730.559998,257.389893 633.572754,257.373352 536.585449,257.395660 
	C530.201721,257.397125 529.382324,258.242157 529.379639,264.627594 
	C529.369690,288.457611 529.381653,312.287659 529.403992,336.117676 
	C529.410889,343.455597 529.700684,343.755005 536.966553,343.760742 
	C567.129211,343.784576 597.291809,343.775421 627.454468,343.803802 
	C634.160034,343.810120 634.204224,343.857513 634.207703,350.430298 
	C634.228088,388.591949 634.231140,426.753571 634.230652,464.915222 
	C634.229370,557.069702 634.222839,649.224243 634.218689,741.378723 
	C634.218384,748.640991 634.219299,748.652405 641.674927,748.653442 
	C668.504761,748.656982 695.334900,748.579468 722.163940,748.724121 
	C726.487061,748.747498 728.289734,747.405579 727.911377,742.982605 
	C726.630371,728.007629 727.752197,713.022095 727.818481,698.038086 
	C728.027100,650.878967 727.972473,603.718811 728.051880,556.559082 
	C728.056641,553.734131 728.341980,550.909790 728.655457,547.190613 
M871.049133,324.679321 
	C868.187805,320.185364 864.575684,316.472015 859.765808,313.136841 
	C857.132690,317.834290 856.025940,322.263702 856.030823,326.953522 
	C856.036377,332.246796 859.050232,335.848053 862.985657,335.551941 
	C867.849915,335.185883 871.959045,330.188995 871.049133,324.679321 
z"/>
</svg>